<svg xmlns="http://www.w3.org/2000/svg" xmlns:xlink="http://www.w3.org/1999/xlink" id="Layer_1" x="0px" y="0px" viewBox="0 0 512 512" style="enable-background:new 0 0 512 512;" xml:space="preserve"><style type="text/css">	.st0{fill-rule:evenodd;clip-rule:evenodd;fill:#00A6BE;}</style><path class="st0" d="M349.4,382.1H162.9c-20.3,0-36.4-16.1-36.4-36.4V139.9c0-41.6,65.2-60,129.4-60c64.6,0,129.3,18.4,129.3,60 v206.3C385.8,366,369.2,382.1,349.4,382.1z M256,96.4c-64.7,0-112.9,18.4-112.9,43.5v206.3c0,10.9,9,19.8,19.8,19.8h186 c10.9,0,19.8-9,19.8-19.8V139.9c0-15.6-17.9-25.5-32.6-30.8C315.9,101.1,286.7,96.4,256,96.4z"></path><path class="st0" d="M377.3,276.3H134.6c-4.7,0-8.6-3.8-8.6-8.5c0-4.7,3.8-8.6,8.6-8.6h242.7c4.7,0,8.5,3.8,8.5,8.6 C385.8,272.5,382,276.3,377.3,276.3z M377.3,162.5H134.6c-4.7,0-8.6-3.8-8.6-8.5c0-4.7,3.8-8,8.6-8h242.7c4.7,0,8.5,3.8,8.5,8 C385.8,158.2,382,162.5,377.3,162.5z"></path><path class="st0" d="M256,276.3c-4.7,0-8.6-3.8-8.6-8.5V154.5c0-4.7,3.8-8,8.6-8c4.7,0,8.5,3.8,8.5,8v113.8 C264,272.5,260.2,276.3,256,276.3z M191.8,346.1h-27.4c-7.6,0-13.7-6.1-13.7-14.2v-20.2c0-7.6,6.1-13.7,13.7-13.7h27.4 c7.5,0,13.6,6.1,13.6,13.7v20.2C205.4,339.5,199.3,346.1,191.8,346.1z M167.7,329.7h21.7v-15.2h-21.7V329.7z M347.5,346.1h-27.4 c-7,0-13.6-6.6-13.6-14.2v-20.2c0-7.6,6.1-13.7,13.6-13.7h27.4c7.6,0,13.7,6.1,13.7,13.7v20.2C361.2,339.5,355.1,346.1,347.5,346.1z  M323,329.7h21.7v-15.2H323V329.7z M286.7,312.1h-61c-4.7,0-8.5-3.8-8.5-8.5s3.8-8,8.5-8h61.4c4.7,0,8.1,3.8,8.1,8.5 S291.4,312.1,286.7,312.1z M268.7,348h-25.1c-4.7,0-8.5-3.8-8.5-8.5s3.8-8.5,8.5-8.5h25.1c4.7,0,8.5,3.8,8.5,8.5 S273.4,348,268.7,348z M392.9,246.5h-15.2c-4.7,0-8.5-3.8-8.5-8.5v-53.9c0-4.7,3.8-8.5,8.5-8.5h15.2c12.7,0,23.1,10.4,23.1,23.7 v23.6C416,235.7,405.6,246.5,392.9,246.5z M385.8,230h7.1c3.8,0,6.6-3.3,6.6-7.1v-23.6c0-3.8-2.9-7.1-6.6-7.1h-7.1V230z  M134.6,246.5h-15.2c-12.7,0-23.1-10.4-23.1-23.6v-23.6c0-13.2,10.4-23.7,23.1-23.7h15.2c4.7,0,8.5,3.8,8.5,8.5V238 C143.1,242.8,139.3,246.5,134.6,246.5z M119.5,192.2c-3.8,0-6.6,3.3-6.6,7.1v23.6c0,3.8,2.9,7.1,6.6,7.1h7.1v-37.3h-7.1V192.2z  M192.7,431.2c-16.1,0-29.3-13.2-29.3-29.3v-28.3c0-4.7,3.8-8.6,8.6-8.6h42c4.7,0,8.5,3.8,8.5,8.6v28.3 C221.5,418.4,208.7,431.2,192.7,431.2z M179.9,382.1v19.8c0,7.1,5.6,12.7,12.7,12.7c6.6,0,12.3-5.6,12.3-12.7v-19.8H179.9z  M319.7,431.2c-16.1,0-28.8-13.2-28.8-29.3v-28.3c0-4.7,3.8-8.6,8.5-8.6h42c4.7,0,8.5,3.8,8.5,8.6v28.3 C348.9,418.4,335.7,431.2,319.7,431.2z M306.9,382.1v19.8c0,7.1,5.7,12.7,12.3,12.7c7.1,0,12.7-5.6,12.7-12.7v-19.8H306.9z"></path></svg>