<svg xmlns="http://www.w3.org/2000/svg" xmlns:xlink="http://www.w3.org/1999/xlink" id="Layer_1" x="0px" y="0px" viewBox="0 0 512 512" style="enable-background:new 0 0 512 512;" xml:space="preserve"><style type="text/css">	.st0{fill:#00A6BE;}</style><g>	<g>		<path class="st0" d="M388.3,40.6H123.7C108.4,40.6,96,53,96,68.2v348.1c0,7.8,3.6,15.1,9.8,19.9l43.9,33.8c2.3,1.8,5.5,1.8,7.9,0   l47.2-36.4l47.3,36.4c2.3,1.8,5.5,1.8,7.9,0l47.2-36.4l47.3,36.4c2.3,1.8,5.5,1.8,7.9,0l43.9-33.8c6.2-4.8,9.8-12.1,9.8-19.9V68.2   C416,53,403.6,40.6,388.3,40.6z M403.1,416.4c0,3.8-1.8,7.4-4.8,9.7l-40,30.8l-47.3-36.4c-2.3-1.8-5.5-1.8-7.9,0L256,456.9   l-47.3-36.4c-2.3-1.8-5.5-1.8-7.9,0l-47.2,36.4l-40-30.8c-3-2.3-4.8-5.9-4.8-9.7V68.2c0-8.2,6.6-14.8,14.8-14.8h264.7   c8.2,0,14.8,6.6,14.8,14.8V416.4z M360.8,299.2h-54.1c-3.6,0-6.4,2.9-6.4,6.4c0,3.6,2.9,6.4,6.4,6.4h54.1c3.6,0,6.4-2.9,6.4-6.4   C367.3,302.1,364.4,299.2,360.8,299.2z M360.8,333.9h-54.1c-3.6,0-6.4,2.9-6.4,6.4c0,3.5,2.9,6.4,6.4,6.4h54.1   c3.6,0,6.4-2.9,6.4-6.4C367.3,336.8,364.4,333.9,360.8,333.9z M360.8,368.6h-54.1c-3.6,0-6.4,2.9-6.4,6.4c0,3.5,2.9,6.4,6.4,6.4   h54.1c3.6,0,6.4-2.9,6.4-6.4C367.3,371.5,364.4,368.6,360.8,368.6z M357.3,152c5.5,0,10-4.5,10-10s-4.5-10-10-10h-39.8   c-5.5,0-10,4.5-10,10v81.8c0,5.5,4.5,10,10,10h39.9c5.5,0,10-4.5,10-10s-4.5-10-10-10h-29.8v-20.9h29.8c5.5,0,10-4.5,10-10   s-4.5-10-10-10h-29.8V152H357.3z M275.9,152c5.5,0,10-4.5,10-10s-4.5-10-10-10h-39.8c-5.5,0-10,4.5-10,10v81.8c0,5.5,4.5,10,10,10   h39.9c5.5,0,10-4.5,10-10s-4.5-10-10-10h-29.8v-20.9h29.8c5.5,0,10-4.5,10-10s-4.5-10-10-10h-29.8V152H275.9z M259.4,299.2H151.2   c-3.6,0-6.4,2.9-6.4,6.4c0,3.6,2.9,6.4,6.4,6.4h108.3c3.5,0,6.4-2.9,6.4-6.4C265.8,302.1,263,299.2,259.4,299.2z M259.4,333.9   H151.2c-3.6,0-6.4,2.9-6.4,6.4c0,3.5,2.9,6.4,6.4,6.4h108.3c3.5,0,6.4-2.9,6.4-6.4C265.8,336.8,263,333.9,259.4,333.9z    M259.4,368.6H151.2c-3.6,0-6.4,2.9-6.4,6.4c0,3.5,2.9,6.4,6.4,6.4h108.3c3.5,0,6.4-2.9,6.4-6.4   C265.8,371.5,263,368.6,259.4,368.6z M154.7,233.7C154.7,233.7,154.7,233.7,154.7,233.7c5.5,0,10-4.5,10-10v-30.9h29.8   c5.5,0,10-4.5,10-10c0-5.5-4.5-10-10-10h-29.8V152h29.8c5.5,0,10-4.5,10-10s-4.5-10-10-10h-39.8c-5.5,0-10,4.5-10,10v81.8   C144.7,229.2,149.2,233.7,154.7,233.7z"></path>		<path class="st0" d="M360.8,368.6h-54.1c-3.6,0-6.4,2.9-6.4,6.4c0,3.5,2.9,6.4,6.4,6.4h54.1c3.6,0,6.4-2.9,6.4-6.4   C367.3,371.5,364.4,368.6,360.8,368.6z M259.4,368.6H151.2c-3.6,0-6.4,2.9-6.4,6.4c0,3.5,2.9,6.4,6.4,6.4h108.3   c3.5,0,6.4-2.9,6.4-6.4C265.8,371.5,263,368.6,259.4,368.6z M360.8,333.9h-54.1c-3.6,0-6.4,2.9-6.4,6.4c0,3.5,2.9,6.4,6.4,6.4   h54.1c3.6,0,6.4-2.9,6.4-6.4C367.3,336.8,364.4,333.9,360.8,333.9z M259.4,333.9H151.2c-3.6,0-6.4,2.9-6.4,6.4   c0,3.5,2.9,6.4,6.4,6.4h108.3c3.5,0,6.4-2.9,6.4-6.4C265.8,336.8,263,333.9,259.4,333.9z M360.8,299.2h-54.1   c-3.6,0-6.4,2.9-6.4,6.4c0,3.6,2.9,6.4,6.4,6.4h54.1c3.6,0,6.4-2.9,6.4-6.4C367.3,302.1,364.4,299.2,360.8,299.2z M259.4,299.2   H151.2c-3.6,0-6.4,2.9-6.4,6.4c0,3.6,2.9,6.4,6.4,6.4h108.3c3.5,0,6.4-2.9,6.4-6.4C265.8,302.1,263,299.2,259.4,299.2z    M357.3,192.8c5.5,0,10-4.5,10-10s-4.5-10-10-10h-29.8V152h29.8c5.5,0,10-4.5,10-10s-4.5-10-10-10h-39.8c-5.5,0-10,4.5-10,10v81.8   c0,5.5,4.5,10,10,10h39.9c5.5,0,10-4.5,10-10s-4.5-10-10-10h-29.8v-20.9H357.3z M275.9,192.8c5.5,0,10-4.5,10-10s-4.5-10-10-10   h-29.8V152h29.8c5.5,0,10-4.5,10-10s-4.5-10-10-10h-39.8c-5.5,0-10,4.5-10,10v81.8c0,5.5,4.5,10,10,10h39.9c5.5,0,10-4.5,10-10   s-4.5-10-10-10h-29.8v-20.9H275.9z M194.6,172.8h-29.8V152h29.8c5.5,0,10-4.5,10-10s-4.5-10-10-10h-39.8c-5.5,0-10,4.5-10,10v81.8   c0,5.5,4.5,10,10,10c0,0,0,0,0,0c5.5,0,10-4.5,10-10v-30.9h29.8c5.5,0,10-4.5,10-10C204.6,177.3,200.1,172.8,194.6,172.8z"></path>	</g>	<path class="st0" d="M144.7,223.7v-81.8c0-5.5,4.5-10,10-10h39.8c5.5,0,10,4.5,10,10s-4.5,10-10,10h-29.8v20.9h29.8  c5.5,0,10,4.5,10,10c0,5.5-4.5,10-10,10h-29.8v30.9c0,5.5-4.5,10-10,10c0,0,0,0,0,0C149.2,233.7,144.7,229.2,144.7,223.7z"></path>	<path class="st0" d="M265.8,375c0,3.5-2.9,6.4-6.4,6.4H151.2c-3.6,0-6.4-2.9-6.4-6.4c0-3.6,2.9-6.4,6.4-6.4h108.3  C263,368.6,265.8,371.5,265.8,375z"></path>	<path class="st0" d="M265.8,340.4c0,3.5-2.9,6.4-6.4,6.4H151.2c-3.6,0-6.4-2.9-6.4-6.4c0-3.6,2.9-6.4,6.4-6.4h108.3  C263,333.9,265.8,336.8,265.8,340.4z"></path>	<path class="st0" d="M265.8,305.7c0,3.6-2.9,6.4-6.4,6.4H151.2c-3.6,0-6.4-2.9-6.4-6.4c0-3.6,2.9-6.4,6.4-6.4h108.3  C263,299.2,265.8,302.1,265.8,305.7z"></path>	<path class="st0" d="M246.1,152v20.9h29.8c5.5,0,10,4.5,10,10s-4.5,10-10,10h-29.8v20.9h29.8c5.5,0,10,4.5,10,10s-4.5,10-10,10H236  c-5.5,0-10-4.5-10-10v-81.8c0-5.5,4.5-10,10-10h39.8c5.5,0,10,4.5,10,10s-4.5,10-10,10H246.1z"></path>	<path class="st0" d="M327.4,192.8v20.9h29.8c5.5,0,10,4.5,10,10s-4.5,10-10,10h-39.9c-5.5,0-10-4.5-10-10v-81.8c0-5.5,4.5-10,10-10  h39.8c5.5,0,10,4.5,10,10s-4.5,10-10,10h-29.8v20.9h29.8c5.5,0,10,4.5,10,10s-4.5,10-10,10H327.4z"></path>	<path class="st0" d="M367.3,375c0,3.5-2.9,6.4-6.4,6.4h-54.1c-3.6,0-6.4-2.9-6.4-6.4c0-3.6,2.9-6.4,6.4-6.4h54.1  C364.4,368.6,367.3,371.5,367.3,375z"></path>	<path class="st0" d="M367.3,340.4c0,3.5-2.9,6.4-6.4,6.4h-54.1c-3.6,0-6.4-2.9-6.4-6.4c0-3.6,2.9-6.4,6.4-6.4h54.1  C364.4,333.9,367.3,336.8,367.3,340.4z"></path>	<path class="st0" d="M367.3,305.7c0,3.6-2.9,6.4-6.4,6.4h-54.1c-3.6,0-6.4-2.9-6.4-6.4c0-3.6,2.9-6.4,6.4-6.4h54.1  C364.4,299.2,367.3,302.1,367.3,305.7z"></path></g></svg>