<svg xmlns="http://www.w3.org/2000/svg" xmlns:xlink="http://www.w3.org/1999/xlink" id="Layer_1" x="0px" y="0px" viewBox="0 0 512 512" style="enable-background:new 0 0 512 512;" xml:space="preserve"><style type="text/css">	.st0{fill-rule:evenodd;clip-rule:evenodd;fill:#00A6BE;}</style><g>	<path class="st0" d="M256,468.7H255c-99-16.6-171-89.2-171-172.3V126.4c0-3.1,2.4-5.6,5.2-5.9c21.1-2.5,52.6-12.5,84.1-26.7  c41.2-18.4,68.8-37.4,78.2-48.5c1.7-2.1,4.8-2.8,7.3-1.4l0.4,0.4c0.7,0.3,1.4,1,2,1.4c11.1,12.8,41.6,31.8,77.5,48.1  c31.2,13.8,62.7,23.9,83.8,26.7c3.1,0.3,5.5,2.8,5.5,5.9v169.9c0,83.1-72,155.8-171,172.3H256z M96.1,131.6v164.7  c0,76.8,67.2,144.3,159.9,160.2c92.7-15.9,159.9-83.4,159.9-160.2V131.6c-21.8-3.5-51.9-13.5-82.1-26.7  c-34.2-15.6-63.3-32.9-77.5-46.7c-14.8,13.8-43.6,31.5-77.9,46.7C148.4,118.5,118.3,128.1,96.1,131.6z"></path>	<path class="st0" d="M256,442.7H255c-82-16.3-141.5-77.8-141.5-147.4V146.2c0-2.8,2-5.2,4.8-5.9c27.7-6.6,55.3-18,69.6-24.5  c11.7-5.2,41.9-19.1,65-36c2.1-1.4,5.2-1.4,7.3,0c22.8,16.9,52.9,30.8,64.7,36c17.3,8,43.6,18.3,69.6,24.5c2.8,0.7,4.8,3.1,4.8,5.9  v149.2c0,69.2-59.5,131.1-141.6,147.1C257,442.7,256.3,442.7,256,442.7z M125.5,151v144.3c0,63.3,55,119.7,130.8,134.9  c75.8-15.2,130.8-72,130.8-134.9V151c-25.2-6.6-50.2-16.6-66.8-24.2c-12.1-5.2-40.5-18.4-64.1-34.6c-23.9,16.6-52.2,29.8-63.6,34.6  C178.8,133,152.5,144.1,125.5,151z"></path>	<path class="st0" d="M324.5,348.3H187.8c-14.9,0-26.7-11.8-26.7-26.7V170.7c0-30.5,47.8-44,94.9-44c47.4,0,94.8,13.5,94.8,44v151.2  C351.2,336.5,339.1,348.3,324.5,348.3z M256,138.9c-47.4,0-82.7,13.5-82.7,31.9v151.2c0,8,6.6,14.5,14.5,14.5h136.3  c8,0,14.5-6.6,14.5-14.5V170.7c0-11.4-13.1-18.7-23.9-22.6C299.9,142.3,278.5,138.9,256,138.9z"></path>	<path class="st0" d="M345,270.7H167.1c-3.5,0-6.3-2.8-6.3-6.2c0-3.5,2.8-6.3,6.3-6.3H345c3.4,0,6.2,2.8,6.2,6.3  C351.2,267.9,348.4,270.7,345,270.7z M345,187.3H167.1c-3.5,0-6.3-2.8-6.3-6.2c0-3.5,2.8-5.9,6.3-5.9H345c3.4,0,6.2,2.8,6.2,5.9  S348.4,187.3,345,187.3z"></path>	<path class="st0" d="M256,270.7c-3.5,0-6.3-2.8-6.3-6.2v-83.1c0-3.5,2.8-5.9,6.3-5.9c3.4,0,6.2,2.8,6.2,5.9v83.4  C261.9,267.9,259.1,270.7,256,270.7z M209,321.9h-20.1c-5.6,0-10-4.5-10-10.4v-14.8c0-5.6,4.5-10,10-10H209c5.5,0,10,4.5,10,10  v14.8C218.9,317.1,214.5,321.9,209,321.9z M191.3,309.9h15.9v-11.1h-15.9V309.9z M323.1,321.9H303c-5.1,0-10-4.8-10-10.4v-14.8  c0-5.6,4.5-10,10-10h20.1c5.6,0,10,4.5,10,10v14.8C333.2,317.1,328.7,321.9,323.1,321.9z M305.1,309.9H321v-11.1h-15.9V309.9z   M278.5,297h-44.7c-3.5,0-6.2-2.8-6.2-6.2s2.8-5.9,6.2-5.9h45c3.5,0,5.9,2.8,5.9,6.2S282,297,278.5,297z M265.4,323.3H247  c-3.5,0-6.2-2.8-6.2-6.2c0-3.5,2.8-6.2,6.2-6.2h18.4c3.5,0,6.2,2.8,6.2,6.2C271.6,320.6,268.8,323.3,265.4,323.3z M356.4,248.9  h-11.1c-3.4,0-6.2-2.8-6.2-6.2v-39.5c0-3.4,2.8-6.2,6.2-6.2h11.1c9.3,0,16.9,7.7,16.9,17.3v17.3C373.3,241,365.7,248.9,356.4,248.9  z M351.2,236.8h5.2c2.8,0,4.8-2.5,4.8-5.2v-17.3c0-2.8-2.1-5.2-4.8-5.2h-5.2V236.8z M167.1,248.9H156c-9.3,0-16.9-7.6-16.9-17.3  v-17.3c0-9.7,7.6-17.3,16.9-17.3h11.1c3.4,0,6.2,2.8,6.2,6.2v39.5C173.3,246.2,170.5,248.9,167.1,248.9z M156,209.1  c-2.8,0-4.8,2.4-4.8,5.2v17.3c0,2.8,2.1,5.2,4.8,5.2h5.2v-27.3H156V209.1z M209.6,384.3c-11.8,0-21.5-9.7-21.5-21.5V342  c0-3.5,2.8-6.3,6.3-6.3h30.8c3.4,0,6.2,2.8,6.2,6.3v20.8C230.7,374.9,221.4,384.3,209.6,384.3z M200.3,348.3v14.5  c0,5.2,4.1,9.3,9.3,9.3c4.8,0,9-4.1,9-9.3v-14.5H200.3z M302.7,384.3c-11.8,0-21.1-9.7-21.1-21.5V342c0-3.5,2.8-6.3,6.2-6.3h30.8  c3.5,0,6.2,2.8,6.2,6.3v20.8C324.2,374.9,314.5,384.3,302.7,384.3z M293.4,348.3v14.5c0,5.2,4.2,9.3,9,9.3c5.2,0,9.3-4.1,9.3-9.3  v-14.5H293.4z"></path></g></svg>