<svg xmlns="http://www.w3.org/2000/svg" xmlns:xlink="http://www.w3.org/1999/xlink" id="Layer_1" x="0px" y="0px" viewBox="0 0 512 512" style="enable-background:new 0 0 512 512;" xml:space="preserve"><style type="text/css">	.st0{fill:#00A6BE;}</style><g>	<path class="st0" d="M394.1,343.3l-49.9-14c-41.7-25.8-28.5-17.6-31.1-19.2v-27.7c17.2-18.2,32.8-45.6,34.5-101.1  c4.8-4.1,7.9-10.1,7.9-17.1c0-7,0-13.7-2.4-24.3l10.7-21c6.7-13.2,0.9-29.5-12.7-35.5l-84.6-37.3c-6.6-2.9-14.3-2.9-20.9,0  l-84.8,37.3c-13.6,6-19.4,22.2-12.7,35.4l10.7,21.1c-2.2,10.6-2.2,17.2-2.2,24.6c0,6.1,2.3,12.1,7.9,16.7  c1.7,54.7,17.6,82.7,34.5,100.9V310c-2.6,1.7,10.6-6.5-31.1,19.3l-49.9,14c-30,8.4-50.9,36.1-50.9,67.3v46c0,4.9,4,8.9,8.9,8.9  c4.9,0,8.7-4,8.7-8.9v-46c0-23.3,15.6-44,38.1-50.3l44.7-12.6l23.2,37.3c7,11.3,21.9,15.6,34.2,8.4l5.6,5.6l-6.5,58.9  c-0.5,4.9,3,9.2,7.8,9.8c4.8,0.5,9.2-3,9.8-7.8l5.2-47.5c2.9,1.2,6,1.7,9.2,1.7s6.3-0.7,9.2-1.7l5.2,47.5c0.6,5.5,6.1,8.7,9.8,7.8  c4.9-0.5,8.4-4.9,7.8-9.8l-6.5-58.9l5.6-5.6c12.2,7.1,27.2,3,34.2-8.4l23.2-37.3l44.8,12.5c22.4,6.3,38.1,27,38.1,50.3v46  c0,4.9,4,8.9,8.9,8.9c4.9,0,8.9-4,8.9-8.9v-46C445,379.5,424.1,351.9,394.1,343.3L394.1,343.3z M256,349.5l-39.4-38.1v-12.8  c0.2,0.2,5.8,4.9,5.9,5c7,6,15.9,9.2,25.1,9.2h17.1c9.2,0,18.1-3.3,25.2-9.3c5.1-4.3,5.3-4.6,5.8-4.8v12.8L256,349.5z M337.9,164.7  c0,2.3-1.9,4.3-4.3,4.3c0.7,0-7.6-0.1-155.2,0c-2.3,0-4.3-1.9-4.3-4.3c0-6.2,0-10.4,1.1-17h161.6  C337.9,154.2,337.9,158.9,337.9,164.7z M303.7,186.7l-7.7,7.5c-5.7,5.5-13.2,8.5-21.1,8.5h-37.8c-7.9,0-15.5-3.1-21.2-8.6l-7.6-7.4  L303.7,186.7z M182.9,186.7l20.7,20c9,8.8,20.9,13.6,33.5,13.6h37.8c12.5,0,24.4-4.8,33.5-13.5l20.8-20.1h0.6  c-3.3,65-27,82.7-51.5,103.3c-3.8,3.2-8.7,5.1-13.7,5.1h-17.1c-5,0-9.9-1.8-13.7-5.1c-20.1-17.9-48.3-33.8-51.7-103.3L182.9,186.7z   M167.9,99.6l84.8-37.3c2.2-0.9,4.6-0.9,6.7,0l84.7,37.3c4.4,1.9,6.2,7.1,4.1,11.3l-9.7,19h-165l-9.6-19  C161.6,106.8,163.5,101.5,167.9,99.6L167.9,99.6z M205.6,375.8l-22-35.4c31.5-19.4,20.6-12.8,22.9-14.2l35.5,34.4l-25.6,17.6  C212.8,380.6,207.9,379.5,205.6,375.8L205.6,375.8z M250.5,394.3l-10.8-10.8l16.2-11.1l16.2,11.1l-10.8,10.8  C258.5,397.2,253.4,397.2,250.5,394.3z M306.3,375.8c-2.3,3.6-7.2,4.8-10.8,2.3l-25.6-17.6l35.5-34.4c2.3,1.4-8.4-5.2,22.9,14.2  L306.3,375.8z"></path></g></svg>