<svg xmlns="http://www.w3.org/2000/svg" xmlns:xlink="http://www.w3.org/1999/xlink" id="Layer_1" x="0px" y="0px" viewBox="0 0 512 512" style="enable-background:new 0 0 512 512;" xml:space="preserve"><style type="text/css">	.st0{fill-rule:evenodd;clip-rule:evenodd;fill:#00A6BE;}	.st1{fill:#00A6BE;}</style><path class="st0" d="M369.2,209h-0.5v137.1c0,10.9-9,19.8-19.8,19.8H163c-10.9,0-19.8-9-19.8-19.8V139.8c0-25,48.1-43.5,112.9-43.5 c13.5,0,26.6,0.9,38.9,2.6c2.2-5.5,5.1-10.8,8.5-15.6c-15.1-2.4-31.2-3.5-47.4-3.5c-64.2,0-129.4,18.4-129.4,60v205.8 c0,20.3,16.1,36.4,36.4,36.4h186.5c0.2,0,0.3,0,0.5,0c19.6-0.3,35.9-16.2,35.4-35.9V207.3C380.1,208.4,374.8,209,369.2,209z"></path><path class="st0" d="M385.3,265c-1.2-3.3-4.3-5.7-8-5.7H134.6c-3.7,0-6.9,2.4-8.1,5.7c-0.3,0.9-0.5,1.9-0.5,2.9c0,1,0.2,1.9,0.5,2.8 c1.2,3.3,4.4,5.7,8.1,5.7h242.7c3.7,0,6.8-2.4,8-5.7c0.3-0.9,0.5-1.8,0.5-2.8C385.8,266.8,385.6,265.8,385.3,265z M290.8,146H134.6 c-3.7,0-6.9,2-8.1,5.2c-0.3,0.8-0.5,1.8-0.5,2.8s0.2,2,0.5,2.9c1.2,3.3,4.4,5.6,8.1,5.6h161.7C293.9,157.2,292.1,151.7,290.8,146z"></path><path class="st0" d="M256,146.5c-4.7,0-8.6,3.3-8.6,8v113.4c0,4.6,3.8,8.5,8.6,8.5c4.2,0,8-3.8,8.5-8.1V154.5 C264.5,150.2,260.6,146.5,256,146.5z M191.8,298h-27.4c-7.6,0-13.7,6.1-13.7,13.7V332c0,8.1,6.1,14.2,13.7,14.2h27.4 c7.5,0,13.6-6.6,13.6-14.2v-20.2C205.4,304.1,199.3,298,191.8,298z M189.4,329.7h-21.7v-15.2h21.7V329.7z M347.5,298h-27.4 c-7.5,0-13.6,6.1-13.6,13.7V332c0,7.6,6.6,14.2,13.6,14.2h27.4c7.6,0,13.7-6.6,13.7-14.2v-20.2C361.2,304.1,355.1,298,347.5,298z  M344.7,329.7H323v-15.2h21.7V329.7z M287.1,295.6h-61.4c-4.7,0-8.5,3.3-8.5,8c0,4.7,3.8,8.5,8.5,8.5h61c4.7,0,8.5-3.3,8.5-8 S291.8,295.6,287.1,295.6z M268.7,331h-25.1c-4.7,0-8.5,3.8-8.5,8.5c0,4.7,3.8,8.5,8.5,8.5h25.1c4.7,0,8.5-3.8,8.5-8.5 C277.2,334.8,273.4,331,268.7,331z M415.4,194.1c-4.9,3.5-10.3,6.5-15.9,8.8v20c0,3.8-2.9,7.1-6.6,7.1h-7.1v-22.8 c-0.2,0-0.3,0.1-0.5,0.1c-5.2,1.1-10.6,1.7-16.1,1.7v29c0,4.7,3.8,8.5,8.5,8.5h15.2c12.7,0,23.1-10.9,23.1-23.6v-23.6 C416,197.5,415.8,195.8,415.4,194.1z M134.6,175.7h-15.2c-12.7,0-23.1,10.4-23.1,23.7v23.6c0,13.2,10.4,23.6,23.1,23.6h15.2 c4.7,0,8.5-3.8,8.5-8.5v-53.9C143.1,179.5,139.3,175.7,134.6,175.7z M126.5,230h-7.1c-3.8,0-6.6-3.3-6.6-7.1v-23.6 c0-3.8,2.9-7.1,6.6-7.1v0.5h7.1V230z M217.9,366c-1.2-0.6-2.5-1-3.9-1h-42c-1.4,0-2.8,0.3-4,1c-2.7,1.4-4.6,4.3-4.6,7.6v28.3 c0,16.1,13.2,29.3,29.3,29.3c16.1,0,28.8-12.8,29.8-29.3v-28.3C222.4,370.3,220.6,367.4,217.9,366z M205,401.9 c0,7.1-5.7,12.7-12.3,12.7c-7.1,0-12.7-5.6-12.7-12.7V382h25V401.9z M345.4,366c-1.2-0.6-2.5-1-4-1h-42c-1.4,0-2.8,0.3-4,1 c-2.7,1.4-4.5,4.3-4.5,7.6v28.3c0,16.1,12.7,29.3,28.8,29.3c16,0,29.2-12.8,30.2-29.3v-28.3C349.9,370.3,348.1,367.4,345.4,366z  M332,401.9c0,7.1-5.6,12.7-12.7,12.7c-6.6,0-12.3-5.6-12.3-12.7V382h25V401.9z"></path><g>	<path class="st1" d="M395.4,142.1l-20.6-15.5V95.1c0-3.2-2.6-5.7-5.7-5.7c-3.2,0-5.7,2.6-5.7,5.7v34.4c0,1.8,0.8,3.5,2.3,4.6  l22.9,17.2c1,0.7,2.2,1.1,3.4,1.1c1.7,0,3.5-0.8,4.6-2.3C398.4,147.6,397.9,144,395.4,142.1z"></path>	<path class="st1" d="M369,55c-40.8,0-74,33.2-74,74s33.2,74,74,74s74-33.2,74-74S409.8,55,369,55z M369,191.5  c-34.5,0-62.5-28.1-62.5-62.5s28.1-62.5,62.5-62.5c34.5,0,62.5,28.1,62.5,62.5S403.5,191.5,369,191.5z"></path></g></svg>