<svg xmlns="http://www.w3.org/2000/svg" xmlns:xlink="http://www.w3.org/1999/xlink" id="Layer_1" x="0px" y="0px" viewBox="0 0 512 512" style="enable-background:new 0 0 512 512;" xml:space="preserve"><style type="text/css">	.st0{fill:#00A6BE;}</style><g>	<g>		<path class="st0" d="M116.3,223.8c-15.9,0-28.9-12.9-28.9-28.9s12.9-28.9,28.9-28.9s28.9,12.9,28.9,28.9S132.2,223.8,116.3,223.8z    M116.3,178.1c-9.3,0-16.8,7.5-16.8,16.8s7.5,16.8,16.8,16.8s16.8-7.5,16.8-16.8S125.6,178.1,116.3,178.1z"></path>		<path class="st0" d="M234.2,393.6c-7.3,0-14.2-4.3-17.1-11.3l-11.9-28.4c-1.3-3.1,0.2-6.6,3.2-7.9c3.1-1.3,6.6,0.2,7.9,3.2   l11.9,28.4c1.3,3.1,4.8,4.7,8,3.6c1.7-0.6,3-1.8,3.8-3.4c0.7-1.6,0.8-3.4,0.1-5.1l-28.1-68.3c-1.7-4.1-5.6-6.7-10.1-6.7h-44.2   c-2.7,0-5.1-1.8-5.8-4.4l-17.4-60.7c-0.9-3.2,0.9-6.5,4.1-7.5c3.2-0.9,6.5,0.9,7.5,4.1l16.1,56.3H202c9.3,0,17.7,5.6,21.2,14.2   l28.1,68.3c1.9,4.7,1.8,10.1-0.3,14.7c-2.1,4.6-6.1,8.2-10.9,9.8C238.1,393.3,236.2,393.6,234.2,393.6z M138.3,326   c-11.1,0-21-6.7-25.2-17c-0.1-0.2-0.2-0.4-0.2-0.6l-15.9-57.1c-3.5-11.1-3-23,1.6-33.7l1.3-3c1.3-3.1,4.9-4.5,7.9-3.2   c3.1,1.3,4.5,4.9,3.2,7.9l-1.3,3c-3.5,8-3.9,17-1.2,25.3c0,0.1,0,0.1,0.1,0.2l15.9,56.8c2.4,5.6,7.8,9.2,13.9,9.2c3.3,0,6,2.7,6,6   S141.6,326,138.3,326z"></path>		<path class="st0" d="M190.4,350.2h-57.3c-20.2,0-38.6-12.7-45.7-31.6c-0.1-0.2-0.1-0.3-0.2-0.5L55.7,203.2   c-1.6-5.4-0.7-11.1,2.5-15.7c3.1-4.6,8.2-7.6,13.7-8.1c8.7-0.8,17,4.7,19.6,13.1c0,0,0,0.1,0,0.1l31.8,111.1   c2.5,6.2,8.5,10.3,15.3,10.3h51.7c10,0,18.1,8.1,18.1,18.1S200.4,350.2,190.4,350.2z M98.8,314.5c5.4,14.1,19.2,23.6,34.3,23.6   h57.3c3.3,0,6-2.7,6-6s-2.7-6-6-6h-51.7c-11.8,0-22.3-7.1-26.6-18.2c-0.1-0.2-0.1-0.4-0.2-0.5L80,196c-0.9-3-3.9-4.9-6.9-4.6   c-2,0.2-3.8,1.2-4.9,2.9c-1.1,1.7-1.4,3.7-0.9,5.6c0,0,0,0.1,0,0.1L98.8,314.5z"></path>		<path class="st0" d="M298.1,223.8c-15.9,0-28.9-12.9-28.9-28.9s12.9-28.9,28.9-28.9C314,166,327,179,327,194.9   S314,223.8,298.1,223.8z M298.1,178.1c-9.3,0-16.8,7.5-16.8,16.8s7.5,16.8,16.8,16.8s16.8-7.5,16.8-16.8S307.4,178.1,298.1,178.1z   "></path>		<path class="st0" d="M416,393.6c-7.3,0-14.2-4.3-17.1-11.3L387,353.9c-1.3-3.1,0.2-6.6,3.2-7.9c3.1-1.3,6.6,0.2,7.9,3.2l11.9,28.4   c1.3,3.1,4.8,4.7,8,3.6c1.7-0.6,3-1.8,3.8-3.4c0.7-1.6,0.8-3.4,0.1-5.1l-28.1-68.3c-1.7-4.1-5.6-6.7-10.1-6.7h-44.2   c-2.7,0-5.1-1.8-5.8-4.4l-17.4-60.7c-0.9-3.2,0.9-6.5,4.1-7.5c3.2-0.9,6.5,0.9,7.5,4.1l16.1,56.3h39.6c9.3,0,17.7,5.6,21.2,14.2   l28.1,68.3c1.9,4.7,1.8,10.1-0.3,14.7c-2.1,4.6-6.1,8.2-10.9,9.8C419.9,393.3,418,393.6,416,393.6z M320.1,326   c-11.1,0-21-6.7-25.2-17c-0.1-0.2-0.2-0.4-0.2-0.6l-15.9-57.1c-3.5-11.1-2.9-23,1.6-33.7l1.3-3c1.3-3.1,4.9-4.5,7.9-3.2   c3.1,1.3,4.5,4.9,3.2,7.9l-1.3,3c-3.5,8-3.9,17-1.2,25.3c0,0.1,0,0.1,0.1,0.2l15.9,56.8c2.4,5.6,7.8,9.2,13.9,9.2c3.3,0,6,2.7,6,6   S323.4,326,320.1,326z"></path>		<path class="st0" d="M451,396.5H61.5c-3.3,0-6-2.7-6-6s2.7-6,6-6H451c3.3,0,6,2.7,6,6S454.3,396.5,451,396.5z M372.2,350.2h-57.3   c-20.2,0-38.6-12.7-45.7-31.6c-0.1-0.2-0.1-0.3-0.2-0.5l-31.5-114.8c-1.6-5.4-0.7-11.1,2.5-15.7c3.1-4.6,8.2-7.6,13.8-8.1   c8.8-0.8,17,4.7,19.6,13.1c0,0,0,0.1,0,0.1l31.8,111.1c2.5,6.2,8.5,10.3,15.3,10.3h51.7c10,0,18.1,8.1,18.1,18.1   S382.2,350.2,372.2,350.2z M280.6,314.5c5.4,14.1,19.2,23.6,34.3,23.6h57.3c3.3,0,6-2.7,6-6s-2.7-6-6-6h-51.7   c-11.8,0-22.3-7.1-26.6-18.2c-0.1-0.2-0.1-0.4-0.2-0.5L261.8,196c-0.9-3-3.9-4.9-6.9-4.6c-2,0.2-3.8,1.2-4.9,2.9   c-1.1,1.7-1.4,3.7-0.9,5.6c0,0,0,0.1,0,0.1L280.6,314.5z M401.2,243.4h-51.3c-3.3,0-6-2.7-6-6s2.7-6,6-6h45.2V127.5H257.1v33.6   c0,3.3-2.7,6-6,6s-6-2.7-6-6v-39.6c0-3.3,2.7-6,6-6h150.1c3.3,0,6,2.7,6,6v115.8C407.2,240.7,404.5,243.4,401.2,243.4z    M216.4,243.4h-47.8c-3.3,0-6-2.7-6-6s2.7-6,6-6h41.7V127.5H72.2v33.6c0,3.3-2.7,6-6,6s-6-2.7-6-6v-39.6c0-3.3,2.7-6,6-6h150.1   c3.3,0,6,2.7,6,6v115.8C222.4,240.7,219.7,243.4,216.4,243.4z"></path>	</g></g></svg>